PathFileType        4      (X/Y/Z)      C:\Users\pc\Desktop\IMUTRC\Sujet_06\Sujet_06_Tpose.trc         
DataRate	CameraRate	NumFrames	NumMarkers	Units	OrigDataRate	OrigDataStartFrame	OrigNumFrames
60.0	60.0	4	64	mm	60.0	16	127
Frame#	Time	pHipOrigin			pRightASI			pLeftASI			pRightCSI			pLeftCSI			pRightIschialTub			pLeftIschialTub			pSacrum			pL5SpinalProcess			pL3SpinalProcess			pT12SpinalProcess			pIJ			pT4SpinalProcess			pT8SpinalProcess			pPX			pC7SpinalProcess			pTopOfHead			pRightAuricularis			pLeftAuricularis			pBackOfHead			pRightAcromion			pLeftAcromion			pRightArmLatEpicondyle			pRightArmMedEpicondyle			pLeftArmLatEpicondyle			pLeftArmMedEpicondyle			pRightUlnarStyloid			pRightRadialStyloid			pRightOlecranon			pLeftUlnarStyloid			pLeftRadialStyloid			pLeftOlecranon			pRightTopOfHand			pRightPinky			pRightBallHand			pLeftTopOfHand			pLeftPinky			pLeftBallHand			pRightGreaterTrochanter			pRightKneeLatEpicondyle			pRightKneeMedEpicondyle			pRightPatella			pLeftGreaterTrochanter			pLeftKneeLatEpicondyle			pLeftKneeMedEpicondyle			pLeftPatella			pRightTibialTub			pRightLatMalleolus			pRightMedMalleolus			pLeftTibialTub			pLeftLatMalleolus			pLeftMedMalleolus			pRightHeelFoot			pRightFirstMetatarsal			pRightFifthMetatarsal			pRightPivotFoot			pRightHeelCenter			pRightToe			pLeftHeelFoot			pLeftFirstMetatarsal			pLeftFifthMetatarsal			pLeftPivotFoot			pLeftHeelCenter			pLeftToe			
		X1	Y1	Z1	X2	Y2	Z2	X3	Y3	Z3	X4	Y4	Z4	X5	Y5	Z5	X6	Y6	Z6	X7	Y7	Z7	X8	Y8	Z8	X9	Y9	Z9	X10	Y10	Z10	X11	Y11	Z11	X12	Y12	Z12	X13	Y13	Z13	X14	Y14	Z14	X15	Y15	Z15	X16	Y16	Z16	X17	Y17	Z17	X18	Y18	Z18	X19	Y19	Z19	X20	Y20	Z20	X21	Y21	Z21	X22	Y22	Z22	X23	Y23	Z23	X24	Y24	Z24	X25	Y25	Z25	X26	Y26	Z26	X27	Y27	Z27	X28	Y28	Z28	X29	Y29	Z29	X30	Y30	Z30	X31	Y31	Z31	X32	Y32	Z32	X33	Y33	Z33	X34	Y34	Z34	X35	Y35	Z35	X36	Y36	Z36	X37	Y37	Z37	X38	Y38	Z38	X39	Y39	Z39	X40	Y40	Z40	X41	Y41	Z41	X42	Y42	Z42	X43	Y43	Z43	X44	Y44	Z44	X45	Y45	Z45	X46	Y46	Z46	X47	Y47	Z47	X48	Y48	Z48	X49	Y49	Z49	X50	Y50	Z50	X51	Y51	Z51	X52	Y52	Z52	X53	Y53	Z53	X54	Y54	Z54	X55	Y55	Z55	X56	Y56	Z56	X57	Y57	Z57	X58	Y58	Z58	X59	Y59	Z59	X60	Y60	Z60	X61	Y61	Z61	X62	Y62	Z62	X63	Y63	Z63	X64	Y64	Z64	
16	0.25	1137.63054	894.6147600000002	-1007.68939	1207.1046	981.58642	-899.0895599999999	1180.54268	983.0780100000001	-1128.10726	1165.22511	1039.18506	-912.1123599999999	1142.79377	1040.44718	-1105.1596	1095.98053	843.7283100000001	-954.22132	1084.79354	844.3593700000001	-1050.77363	1079.34347	911.8255100000001	-1000.80509	1104.87275	994.1502600000001	-1002.4114199999999	1107.28226	1109.0607	-1001.7229899999999	1095.98053	1213.2431	-999.1413799999999	1221.21742	1448.45668	-1020.5400799999999	1075.44237	1408.12616	-994.8960599999999	1081.35139	1317.19603	-996.1008099999999	1234.35496	1324.65402	-1023.0643199999998	1072.74602	1464.40531	-993.4044599999999	1107.11015	1735.64672	-981.4716799999999	1136.99948	1626.41583	-923.8156699999998	1100.05374	1638.69283	-1063.22274	1063.91117	1624.86686	-979.7505999999998	1131.83626	1454.70992	-822.1001399999999	1058.40373	1456.66047	-1173.02732	1182.83745	1403.07767	-551.8339999999998	1240.49346	1384.14585	-568.9873799999999	964.03145	1371.46726	-1429.63959	1020.13849	1344.50375	-1439.6792	1257.70421	1335.15258	-314.32565999999997	1235.15813	1381.04791	-304.63026999999994	1220.1274	1371.86885	-568.1842099999999	903.56435	1284.09402	-1664.50896	875.39609	1327.80933	-1661.98471	1005.33725	1337.9063	-1432.22121	1290.80622	1347.54432	-148.12717999999992	1301.0753	1330.16146	-227.2966299999999	1274.456	1353.10913	-287.30477999999994	872.47026	1283.46296	-1828.64214	905.45753	1265.1622	-1756.18488	906.77702	1294.42047	-1693.13617	1151.68599	862.5454	-860.82432	1112.90443	485.11366000000004	-875.96978	1106.53646	482.99100000000004	-949.45968	1150.65334	482.81889000000007	-918.70981	1116.23185	862.4306600000001	-1153.12022	1089.32571	484.8268100000001	-1123.91931	1102.06166	483.79417000000007	-1051.23258	1136.82738	483.7368000000001	-1092.3089	1161.26664	450.4053200000001	-918.5377	1096.0379	85.82427000000006	-872.01131	1090.98941	83.98846000000006	-930.87207	1146.58013	450.17584000000005	-1094.66104	1067.29595	86.11112000000007	-1117.60871	1077.56503	85.02110000000008	-1059.43637	1060.52639	-0.05736999999994462	-904.42489	1212.4973	12.850690000000059	-957.49137	1220.75846	6.999040000000054	-881.76407	1238.02658	11.301730000000056	-922.89776	1097.58687	4.130580000000056	-908.09651	1313.63914	15.948630000000056	-930.8147	1041.93878	0.05737000000006611	-1079.74506	1202.91665	11.818050000000065	-1084.16248	1183.2964	11.30173000000007	-1157.93923	1214.27575	13.02280000000007	-1125.58302	1077.85187	4.646900000000066	-1089.32571	1287.70828	18.35813000000007	-1145.14591	
17	0.267	1137.68791	894.6147600000002	-1007.68939	1207.16197	981.58642	-899.2042899999999	1180.54268	983.0780100000001	-1128.16463	1165.28248	1039.18506	-912.1697299999998	1142.85114	1040.44718	-1105.21697	1096.09527	843.7283100000001	-954.27869	1084.85091	844.3593700000001	-1050.831	1079.40084	911.8255100000001	-1000.80509	1104.93012	994.1502600000001	-1002.4114199999999	1107.33963	1109.0607	-1001.7803599999999	1096.0379	1213.2431	-999.1987499999999	1221.27479	1448.45668	-1020.5974499999999	1075.49974	1408.12616	-995.0107999999999	1081.40876	1317.19603	-996.1581799999999	1234.41233	1324.65402	-1023.1216899999998	1072.80339	1464.40531	-993.5191999999998	1106.99541	1735.58935	-981.5290499999999	1136.94211	1626.4732	-923.9303999999998	1099.99637	1638.69283	-1063.28011	1063.8538	1624.80949	-979.8079699999998	1131.89363	1454.70992	-822.2148699999999	1058.4611	1456.6031	-1173.14206	1182.83745	1403.13504	-551.9487399999999	1240.49346	1384.20322	-569.0447499999999	964.08882	1371.29515	-1429.75433	1020.19586	1344.38902	-1439.73657	1257.70421	1335.26732	-314.38301999999993	1235.15813	1381.16265	-304.68763999999993	1220.1274	1371.92621	-568.2415799999999	903.67909	1283.97928	-1664.56633	875.51083	1327.69459	-1662.09945	1005.39462	1337.79156	-1432.27858	1290.86358	1347.71643	-148.18454999999992	1301.0753	1330.33357	-227.2966299999999	1274.456	1353.28124	-287.30477999999994	872.64237	1283.29085	-1828.69951	905.57227	1265.04746	-1756.24225	906.89176	1294.24837	-1693.19354	1151.74336	862.5454	-860.88169	1112.9618	485.11366000000004	-875.96978	1106.53646	482.99100000000004	-949.45968	1150.65334	482.81889000000007	-918.70981	1116.23185	862.4306600000001	-1153.17759	1089.26834	484.8268100000001	-1123.91931	1102.00429	483.79417000000007	-1051.23258	1136.77001	483.7368000000001	-1092.3089	1161.26664	450.4053200000001	-918.5377	1096.0379	85.82427000000006	-872.01131	1090.98941	83.98846000000006	-930.87207	1146.52276	450.23321000000004	-1094.66104	1067.29595	86.11112000000007	-1117.60871	1077.56503	85.02110000000008	-1059.43637	1060.52639	-0.05736999999994462	-904.36752	1212.43994	12.850690000000059	-957.49137	1220.75846	7.056410000000054	-881.82144	1238.02658	11.301730000000056	-922.89776	1097.58687	4.130580000000056	-908.09651	1313.63914	15.948630000000056	-930.8147	1041.93878	0.05737000000006611	-1079.74506	1202.91665	11.818050000000065	-1084.16248	1183.2964	11.244360000000071	-1157.93923	1214.27575	13.02280000000007	-1125.58302	1077.85187	4.646900000000066	-1089.32571	1287.70828	18.35813000000007	-1145.14591	
18	0.283	1137.74528	894.6147600000002	-1007.74675	1207.27671	981.58642	-899.2616599999999	1180.54268	983.0780100000001	-1128.222	1165.33985	1039.18506	-912.2270899999999	1142.79377	1040.44718	-1105.27434	1096.15264	843.7283100000001	-954.27869	1084.85091	844.3593700000001	-1050.831	1079.45821	911.8255100000001	-1000.86245	1104.93012	994.1502600000001	-1002.4687899999999	1107.39699	1109.0607	-1001.8377299999999	1096.09527	1213.2431	-999.2561199999999	1221.33216	1448.45668	-1020.7121899999999	1075.55711	1408.12616	-995.0681699999999	1081.46613	1317.19603	-996.2729199999999	1234.41233	1324.65402	-1023.2364299999999	1072.86076	1464.40531	-993.5765699999998	1106.88067	1735.58935	-981.6437799999999	1136.94211	1626.4732	-924.0451399999998	1099.99637	1638.63546	-1063.39484	1063.8538	1624.75213	-979.9227099999999	1132.00837	1454.70992	-822.2722399999999	1058.57583	1456.54573	-1173.2568	1182.83745	1403.13504	-552.0061099999999	1240.49346	1384.26059	-569.1021199999999	964.14619	1371.18042	-1429.8117	1020.25323	1344.27428	-1439.79394	1257.70421	1335.43943	-314.38301999999993	1235.10076	1381.27739	-304.68763999999993	1220.1274	1371.98358	-568.2989499999999	903.79383	1283.80718	-1664.68106	875.62557	1327.52248	-1662.15682	1005.50936	1337.67682	-1432.33595	1290.80622	1347.88853	-148.2419199999999	1301.0753	1330.44831	-227.35399999999993	1274.456	1353.39597	-287.36214999999993	872.75711	1283.11875	-1828.75688	905.74438	1264.87535	-1756.35699	907.0065	1294.13363	-1693.25091	1151.8581	862.5454	-860.88169	1112.9618	485.11366000000004	-875.96978	1106.53646	482.99100000000004	-949.45968	1150.71071	482.7615200000001	-918.76718	1116.23185	862.4306600000001	-1153.17759	1089.1536	484.8268100000001	-1123.91931	1102.00429	483.79417000000007	-1051.23258	1136.71264	483.7368000000001	-1092.3089	1161.26664	450.4053200000001	-918.59507	1096.0379	85.82427000000006	-872.01131	1090.98941	83.98846000000006	-930.87207	1146.52276	450.23321000000004	-1094.71841	1067.29595	86.11112000000007	-1117.60871	1077.56503	85.02110000000008	-1059.43637	1060.52639	-0.05736999999994462	-904.36752	1212.43994	12.850690000000059	-957.49137	1220.75846	7.056410000000054	-881.82144	1238.02658	11.301730000000056	-922.95513	1097.58687	4.187950000000056	-908.09651	1313.63914	15.948630000000056	-930.8147	1041.93878	0.05737000000006611	-1079.74506	1202.91665	11.818050000000065	-1084.16248	1183.2964	11.244360000000071	-1157.9966	1214.27575	13.02280000000007	-1125.64039	1077.85187	4.646900000000066	-1089.32571	1287.70828	18.35813000000007	-1145.14591	
19	0.3	1137.74528	894.6147600000002	-1007.80412	1207.33408	981.58642	-899.3190299999999	1180.48531	983.0780100000001	-1128.33674	1165.39722	1039.18506	-912.2844599999999	1142.79377	1040.44718	-1105.3317	1096.15264	843.7283100000001	-954.33606	1084.85091	844.3020000000001	-1050.88837	1079.45821	911.8255100000001	-1000.86245	1104.98749	994.1502600000001	-1002.5261599999999	1107.39699	1109.0607	-1001.8950999999998	1096.09527	1213.2431	-999.3134899999999	1221.38953	1448.39931	-1020.8269199999999	1075.61448	1408.12616	-995.1829099999999	1081.5235	1317.19603	-996.3302899999999	1234.4697	1324.65402	-1023.3511699999999	1072.9755	1464.40531	-993.6913099999999	1106.76593	1735.58935	-981.7585199999999	1136.94211	1626.4732	-924.1598799999999	1099.939	1638.63546	-1063.50958	1063.8538	1624.75213	-980.0374499999999	1132.06574	1454.70992	-822.3869799999999	1058.6332	1456.54573	-1173.31417	1182.83745	1403.19241	-552.0634799999999	1240.49346	1384.31795	-569.1021199999999	964.20356	1371.06568	-1429.86907	1020.3106	1344.15954	-1439.85131	1257.64684	1335.49679	-314.4403899999999	1235.10076	1381.39213	-304.7450099999999	1220.1274	1371.98358	-568.3563199999999	903.8512	1283.69244	-1664.73843	875.68294	1327.35037	-1662.21419	1005.56673	1337.56208	-1432.45068	1290.80622	1348.00327	-148.29928999999993	1301.01793	1330.56305	-227.41136999999992	1274.39863	1353.51071	-287.4195199999999	872.81448	1282.94664	-1828.87161	905.80175	1264.70325	-1756.41436	907.06387	1293.96152	-1693.30828	1151.91547	862.5454	-860.93906	1113.01917	485.17103000000003	-876.02715	1106.53646	482.99100000000004	-949.51705	1150.71071	482.7615200000001	-918.82455	1116.23185	862.4306600000001	-1153.23496	1089.1536	484.8268100000001	-1123.91931	1101.94692	483.79417000000007	-1051.23258	1136.65527	483.7368000000001	-1092.36627	1161.32401	450.4053200000001	-918.59507	1096.0379	85.82427000000006	-872.01131	1090.98941	83.98846000000006	-930.87207	1146.4654	450.23321000000004	-1094.71841	1067.29595	86.11112000000007	-1117.60871	1077.56503	85.02110000000008	-1059.43637	1060.52639	-0.05736999999994462	-904.36752	1212.43994	12.850690000000059	-957.49137	1220.75846	7.056410000000054	-881.82144	1238.02658	11.301730000000056	-922.95513	1097.58687	4.187950000000056	-908.09651	1313.63914	16.006000000000057	-930.87207	1041.93878	0.05737000000006611	-1079.74506	1202.91665	11.818050000000065	-1084.16248	1183.2964	11.244360000000071	-1157.9966	1214.27575	13.02280000000007	-1125.64039	1077.85187	4.646900000000066	-1089.32571	1287.70828	18.35813000000007	-1145.20327	
